<?xml version="1.0" encoding="utf-8" standalone="no"?>
<!DOCTYPE svg PUBLIC "-//W3C//DTD SVG 1.1//EN"
  "http://www.w3.org/Graphics/SVG/1.1/DTD/svg11.dtd">
<svg xmlns:xlink="http://www.w3.org/1999/xlink" width="543.155625pt" height="400.266874pt" viewBox="0 0 543.155625 400.266874" xmlns="http://www.w3.org/2000/svg" version="1.1">
 <metadata>
  <rdf:RDF xmlns:dc="http://purl.org/dc/elements/1.1/" xmlns:cc="http://creativecommons.org/ns#" xmlns:rdf="http://www.w3.org/1999/02/22-rdf-syntax-ns#">
   <cc:Work>
    <dc:type rdf:resource="http://purl.org/dc/dcmitype/StillImage"/>
    <dc:date>2025-07-11T12:41:12.348963</dc:date>
    <dc:format>image/svg+xml</dc:format>
    <dc:creator>
     <cc:Agent>
      <dc:title>Matplotlib v3.9.2, https://matplotlib.org/</dc:title>
     </cc:Agent>
    </dc:creator>
   </cc:Work>
  </rdf:RDF>
 </metadata>
 <defs>
  <style type="text/css">*{stroke-linejoin: round; stroke-linecap: butt}</style>
 </defs>
 <g id="figure_1">
  <g id="patch_1">
   <path d="M 0 400.266874 
L 543.155625 400.266874 
L 543.155625 0 
L 0 0 
z
" style="fill: #ffffff"/>
  </g>
  <g id="axes_1">
   <g id="patch_2">
    <path d="M 73.525625 323.514103 
L 535.955625 323.514103 
L 535.955625 14.373437 
L 73.525625 14.373437 
z
" style="fill: #ffffff"/>
   </g>
   <g id="matplotlib.axis_1">
    <g id="xtick_1">
     <g id="line2d_1">
      <defs>
       <path id="mc120537611" d="M 0 0 
L 0 5 
" style="stroke: #000000; stroke-width: 0.8"/>
      </defs>
      <g>
       <use xlink:href="#mc120537611" x="73.525625" y="323.514103" style="stroke: #000000; stroke-width: 0.8"/>
      </g>
     </g>
     <g id="text_1">
      <!-- 0 -->
      <g transform="translate(73.191959 350.023229) rotate(-45) scale(0.2 -0.2)">
       <defs>
        <path id="Helvetica-30" d="M 1731 4475 
Q 2600 4475 2988 3759 
Q 3288 3206 3288 2244 
Q 3288 1331 3016 734 
Q 2622 -122 1728 -122 
Q 922 -122 528 578 
Q 200 1163 200 2147 
Q 200 2909 397 3456 
Q 766 4475 1731 4475 
z
M 1725 391 
Q 2163 391 2422 778 
Q 2681 1166 2681 2222 
Q 2681 2984 2493 3476 
Q 2306 3969 1766 3969 
Q 1269 3969 1039 3501 
Q 809 3034 809 2125 
Q 809 1441 956 1025 
Q 1181 391 1725 391 
z
" transform="scale(0.015625)"/>
       </defs>
       <use xlink:href="#Helvetica-30"/>
      </g>
     </g>
    </g>
    <g id="xtick_2">
     <g id="line2d_2">
      <g>
       <use xlink:href="#mc120537611" x="95.546101" y="323.514103" style="stroke: #000000; stroke-width: 0.8"/>
      </g>
     </g>
    </g>
    <g id="xtick_3">
     <g id="line2d_3">
      <g>
       <use xlink:href="#mc120537611" x="117.566577" y="323.514103" style="stroke: #000000; stroke-width: 0.8"/>
      </g>
     </g>
     <g id="text_2">
      <!-- 20 -->
      <g transform="translate(113.300735 357.887582) rotate(-45) scale(0.2 -0.2)">
       <defs>
        <path id="Helvetica-32" d="M 200 0 
Q 231 578 439 1006 
Q 647 1434 1250 1784 
L 1850 2131 
Q 2253 2366 2416 2531 
Q 2672 2791 2672 3125 
Q 2672 3516 2437 3745 
Q 2203 3975 1813 3975 
Q 1234 3975 1013 3538 
Q 894 3303 881 2888 
L 309 2888 
Q 319 3472 525 3841 
Q 891 4491 1816 4491 
Q 2584 4491 2939 4075 
Q 3294 3659 3294 3150 
Q 3294 2613 2916 2231 
Q 2697 2009 2131 1694 
L 1703 1456 
Q 1397 1288 1222 1134 
Q 909 863 828 531 
L 3272 531 
L 3272 0 
L 200 0 
z
" transform="scale(0.015625)"/>
       </defs>
       <use xlink:href="#Helvetica-32"/>
       <use xlink:href="#Helvetica-30" x="55.615234"/>
      </g>
     </g>
    </g>
    <g id="xtick_4">
     <g id="line2d_4">
      <g>
       <use xlink:href="#mc120537611" x="139.587054" y="323.514103" style="stroke: #000000; stroke-width: 0.8"/>
      </g>
     </g>
    </g>
    <g id="xtick_5">
     <g id="line2d_5">
      <g>
       <use xlink:href="#mc120537611" x="161.60753" y="323.514103" style="stroke: #000000; stroke-width: 0.8"/>
      </g>
     </g>
     <g id="text_3">
      <!-- 40 -->
      <g transform="translate(157.341687 357.887582) rotate(-45) scale(0.2 -0.2)">
       <defs>
        <path id="Helvetica-34" d="M 2116 1584 
L 2116 3613 
L 681 1584 
L 2116 1584 
z
M 2125 0 
L 2125 1094 
L 163 1094 
L 163 1644 
L 2213 4488 
L 2688 4488 
L 2688 1584 
L 3347 1584 
L 3347 1094 
L 2688 1094 
L 2688 0 
L 2125 0 
z
" transform="scale(0.015625)"/>
       </defs>
       <use xlink:href="#Helvetica-34"/>
       <use xlink:href="#Helvetica-30" x="55.615234"/>
      </g>
     </g>
    </g>
    <g id="xtick_6">
     <g id="line2d_6">
      <g>
       <use xlink:href="#mc120537611" x="183.628006" y="323.514103" style="stroke: #000000; stroke-width: 0.8"/>
      </g>
     </g>
    </g>
    <g id="xtick_7">
     <g id="line2d_7">
      <g>
       <use xlink:href="#mc120537611" x="205.648482" y="323.514103" style="stroke: #000000; stroke-width: 0.8"/>
      </g>
     </g>
     <g id="text_4">
      <!-- 60 -->
      <g transform="translate(201.38264 357.887582) rotate(-45) scale(0.2 -0.2)">
       <defs>
        <path id="Helvetica-36" d="M 1872 4494 
Q 2622 4494 2917 4105 
Q 3213 3716 3213 3303 
L 2656 3303 
Q 2606 3569 2497 3719 
Q 2294 4000 1881 4000 
Q 1409 4000 1131 3564 
Q 853 3128 822 2316 
Q 1016 2600 1309 2741 
Q 1578 2866 1909 2866 
Q 2472 2866 2890 2506 
Q 3309 2147 3309 1434 
Q 3309 825 2912 354 
Q 2516 -116 1781 -116 
Q 1153 -116 697 361 
Q 241 838 241 1966 
Q 241 2800 444 3381 
Q 834 4494 1872 4494 
z
M 1831 384 
Q 2275 384 2495 682 
Q 2716 981 2716 1388 
Q 2716 1731 2519 2042 
Q 2322 2353 1803 2353 
Q 1441 2353 1167 2112 
Q 894 1872 894 1388 
Q 894 963 1142 673 
Q 1391 384 1831 384 
z
" transform="scale(0.015625)"/>
       </defs>
       <use xlink:href="#Helvetica-36"/>
       <use xlink:href="#Helvetica-30" x="55.615234"/>
      </g>
     </g>
    </g>
    <g id="xtick_8">
     <g id="line2d_8">
      <g>
       <use xlink:href="#mc120537611" x="227.668958" y="323.514103" style="stroke: #000000; stroke-width: 0.8"/>
      </g>
     </g>
    </g>
    <g id="xtick_9">
     <g id="line2d_9">
      <g>
       <use xlink:href="#mc120537611" x="249.689435" y="323.514103" style="stroke: #000000; stroke-width: 0.8"/>
      </g>
     </g>
     <g id="text_5">
      <!-- 80 -->
      <g transform="translate(245.423592 357.887582) rotate(-45) scale(0.2 -0.2)">
       <defs>
        <path id="Helvetica-38" d="M 1741 2600 
Q 2113 2600 2322 2808 
Q 2531 3016 2531 3303 
Q 2531 3553 2331 3762 
Q 2131 3972 1722 3972 
Q 1316 3972 1134 3762 
Q 953 3553 953 3272 
Q 953 2956 1187 2778 
Q 1422 2600 1741 2600 
z
M 1775 384 
Q 2166 384 2423 595 
Q 2681 806 2681 1225 
Q 2681 1659 2415 1884 
Q 2150 2109 1734 2109 
Q 1331 2109 1076 1879 
Q 822 1650 822 1244 
Q 822 894 1055 639 
Q 1288 384 1775 384 
z
M 975 2384 
Q 741 2484 609 2619 
Q 363 2869 363 3269 
Q 363 3769 725 4128 
Q 1088 4488 1753 4488 
Q 2397 4488 2762 4148 
Q 3128 3809 3128 3356 
Q 3128 2938 2916 2678 
Q 2797 2531 2547 2391 
Q 2825 2263 2984 2097 
Q 3281 1784 3281 1284 
Q 3281 694 2884 283 
Q 2488 -128 1763 -128 
Q 1109 -128 657 226 
Q 206 581 206 1256 
Q 206 1653 400 1942 
Q 594 2231 975 2384 
z
" transform="scale(0.015625)"/>
       </defs>
       <use xlink:href="#Helvetica-38"/>
       <use xlink:href="#Helvetica-30" x="55.615234"/>
      </g>
     </g>
    </g>
    <g id="xtick_10">
     <g id="line2d_10">
      <g>
       <use xlink:href="#mc120537611" x="271.709911" y="323.514103" style="stroke: #000000; stroke-width: 0.8"/>
      </g>
     </g>
    </g>
    <g id="xtick_11">
     <g id="line2d_11">
      <g>
       <use xlink:href="#mc120537611" x="293.730387" y="323.514103" style="stroke: #000000; stroke-width: 0.8"/>
      </g>
     </g>
     <g id="text_6">
      <!-- 100 -->
      <g transform="translate(285.532368 365.751935) rotate(-45) scale(0.2 -0.2)">
       <defs>
        <path id="Helvetica-31" d="M 613 3169 
L 613 3600 
Q 1222 3659 1462 3798 
Q 1703 3938 1822 4456 
L 2266 4456 
L 2266 0 
L 1666 0 
L 1666 3169 
L 613 3169 
z
" transform="scale(0.015625)"/>
       </defs>
       <use xlink:href="#Helvetica-31"/>
       <use xlink:href="#Helvetica-30" x="55.615234"/>
       <use xlink:href="#Helvetica-30" x="111.230469"/>
      </g>
     </g>
    </g>
    <g id="xtick_12">
     <g id="line2d_12">
      <g>
       <use xlink:href="#mc120537611" x="315.750863" y="323.514103" style="stroke: #000000; stroke-width: 0.8"/>
      </g>
     </g>
    </g>
    <g id="xtick_13">
     <g id="line2d_13">
      <g>
       <use xlink:href="#mc120537611" x="337.771339" y="323.514103" style="stroke: #000000; stroke-width: 0.8"/>
      </g>
     </g>
     <g id="text_7">
      <!-- 120 -->
      <g transform="translate(329.57332 365.751935) rotate(-45) scale(0.2 -0.2)">
       <use xlink:href="#Helvetica-31"/>
       <use xlink:href="#Helvetica-32" x="55.615234"/>
       <use xlink:href="#Helvetica-30" x="111.230469"/>
      </g>
     </g>
    </g>
    <g id="xtick_14">
     <g id="line2d_14">
      <g>
       <use xlink:href="#mc120537611" x="359.791815" y="323.514103" style="stroke: #000000; stroke-width: 0.8"/>
      </g>
     </g>
    </g>
    <g id="xtick_15">
     <g id="line2d_15">
      <g>
       <use xlink:href="#mc120537611" x="381.812292" y="323.514103" style="stroke: #000000; stroke-width: 0.8"/>
      </g>
     </g>
     <g id="text_8">
      <!-- 140 -->
      <g transform="translate(373.614272 365.751935) rotate(-45) scale(0.2 -0.2)">
       <use xlink:href="#Helvetica-31"/>
       <use xlink:href="#Helvetica-34" x="55.615234"/>
       <use xlink:href="#Helvetica-30" x="111.230469"/>
      </g>
     </g>
    </g>
    <g id="xtick_16">
     <g id="line2d_16">
      <g>
       <use xlink:href="#mc120537611" x="403.832768" y="323.514103" style="stroke: #000000; stroke-width: 0.8"/>
      </g>
     </g>
    </g>
    <g id="xtick_17">
     <g id="line2d_17">
      <g>
       <use xlink:href="#mc120537611" x="425.853244" y="323.514103" style="stroke: #000000; stroke-width: 0.8"/>
      </g>
     </g>
     <g id="text_9">
      <!-- 160 -->
      <g transform="translate(417.655225 365.751935) rotate(-45) scale(0.2 -0.2)">
       <use xlink:href="#Helvetica-31"/>
       <use xlink:href="#Helvetica-36" x="55.615234"/>
       <use xlink:href="#Helvetica-30" x="111.230469"/>
      </g>
     </g>
    </g>
    <g id="xtick_18">
     <g id="line2d_18">
      <g>
       <use xlink:href="#mc120537611" x="447.87372" y="323.514103" style="stroke: #000000; stroke-width: 0.8"/>
      </g>
     </g>
    </g>
    <g id="xtick_19">
     <g id="line2d_19">
      <g>
       <use xlink:href="#mc120537611" x="469.894196" y="323.514103" style="stroke: #000000; stroke-width: 0.8"/>
      </g>
     </g>
     <g id="text_10">
      <!-- 180 -->
      <g transform="translate(461.696177 365.751935) rotate(-45) scale(0.2 -0.2)">
       <use xlink:href="#Helvetica-31"/>
       <use xlink:href="#Helvetica-38" x="55.615234"/>
       <use xlink:href="#Helvetica-30" x="111.230469"/>
      </g>
     </g>
    </g>
    <g id="xtick_20">
     <g id="line2d_20">
      <g>
       <use xlink:href="#mc120537611" x="491.914673" y="323.514103" style="stroke: #000000; stroke-width: 0.8"/>
      </g>
     </g>
    </g>
    <g id="xtick_21">
     <g id="line2d_21">
      <g>
       <use xlink:href="#mc120537611" x="513.935149" y="323.514103" style="stroke: #000000; stroke-width: 0.8"/>
      </g>
     </g>
     <g id="text_11">
      <!-- 200 -->
      <g transform="translate(505.73713 365.751935) rotate(-45) scale(0.2 -0.2)">
       <use xlink:href="#Helvetica-32"/>
       <use xlink:href="#Helvetica-30" x="55.615234"/>
       <use xlink:href="#Helvetica-30" x="111.230469"/>
      </g>
     </g>
    </g>
    <g id="xtick_22">
     <g id="line2d_22">
      <g>
       <use xlink:href="#mc120537611" x="535.955625" y="323.514103" style="stroke: #000000; stroke-width: 0.8"/>
      </g>
     </g>
    </g>
    <g id="text_12">
     <!-- N$_T$ -->
     <g transform="translate(291.650625 388.481249) scale(0.22 -0.22)">
      <defs>
       <path id="Helvetica-4e" d="M 488 4591 
L 1222 4591 
L 3541 872 
L 3541 4591 
L 4131 4591 
L 4131 0 
L 3434 0 
L 1081 3716 
L 1081 0 
L 488 0 
L 488 4591 
z
M 2269 4591 
L 2269 4591 
z
" transform="scale(0.015625)"/>
       <path id="DejaVuSans-Oblique-54" d="M 378 4666 
L 4325 4666 
L 4225 4134 
L 2559 4134 
L 1759 0 
L 1125 0 
L 1925 4134 
L 275 4134 
L 378 4666 
z
" transform="scale(0.015625)"/>
      </defs>
      <use xlink:href="#Helvetica-4e" transform="translate(0 0.265625)"/>
      <use xlink:href="#DejaVuSans-Oblique-54" transform="translate(73.173828 -16.140625) scale(0.7)"/>
     </g>
    </g>
   </g>
   <g id="matplotlib.axis_2">
    <g id="ytick_1">
     <g id="line2d_23">
      <defs>
       <path id="m957df9964e" d="M 0 0 
L -5 0 
" style="stroke: #000000; stroke-width: 0.8"/>
      </defs>
      <g>
       <use xlink:href="#m957df9964e" x="73.525625" y="323.514103" style="stroke: #000000; stroke-width: 0.8"/>
      </g>
     </g>
     <g id="text_13">
      <!-- 70 -->
      <g transform="translate(42.781875 330.687541) scale(0.2 -0.2)">
       <defs>
        <path id="Helvetica-37" d="M 3347 4400 
L 3347 3909 
Q 3131 3700 2773 3181 
Q 2416 2663 2141 2063 
Q 1869 1478 1728 997 
Q 1638 688 1494 0 
L 872 0 
Q 1084 1281 1809 2550 
Q 2238 3294 2709 3834 
L 234 3834 
L 234 4400 
L 3347 4400 
z
" transform="scale(0.015625)"/>
       </defs>
       <use xlink:href="#Helvetica-37"/>
       <use xlink:href="#Helvetica-30" x="55.615234"/>
      </g>
     </g>
    </g>
    <g id="ytick_2">
     <g id="line2d_24">
      <g>
       <use xlink:href="#m957df9964e" x="73.525625" y="284.87152" style="stroke: #000000; stroke-width: 0.8"/>
      </g>
     </g>
     <g id="text_14">
      <!-- 80 -->
      <g transform="translate(42.781875 292.044957) scale(0.2 -0.2)">
       <use xlink:href="#Helvetica-38"/>
       <use xlink:href="#Helvetica-30" x="55.615234"/>
      </g>
     </g>
    </g>
    <g id="ytick_3">
     <g id="line2d_25">
      <g>
       <use xlink:href="#m957df9964e" x="73.525625" y="246.228937" style="stroke: #000000; stroke-width: 0.8"/>
      </g>
     </g>
     <g id="text_15">
      <!-- 90 -->
      <g transform="translate(42.781875 253.402374) scale(0.2 -0.2)">
       <defs>
        <path id="Helvetica-39" d="M 850 1081 
Q 875 616 1209 438 
Q 1381 344 1597 344 
Q 2000 344 2284 680 
Q 2569 1016 2688 2044 
Q 2500 1747 2223 1626 
Q 1947 1506 1628 1506 
Q 981 1506 604 1909 
Q 228 2313 228 2947 
Q 228 3556 600 4018 
Q 972 4481 1697 4481 
Q 2675 4481 3047 3600 
Q 3253 3116 3253 2388 
Q 3253 1566 3006 931 
Q 2597 -125 1619 -125 
Q 963 -125 622 219 
Q 281 563 281 1081 
L 850 1081 
z
M 1703 2000 
Q 2038 2000 2314 2220 
Q 2591 2441 2591 2991 
Q 2591 3484 2342 3726 
Q 2094 3969 1709 3969 
Q 1297 3969 1055 3692 
Q 813 3416 813 2953 
Q 813 2516 1025 2258 
Q 1238 2000 1703 2000 
z
" transform="scale(0.015625)"/>
       </defs>
       <use xlink:href="#Helvetica-39"/>
       <use xlink:href="#Helvetica-30" x="55.615234"/>
      </g>
     </g>
    </g>
    <g id="ytick_4">
     <g id="line2d_26">
      <g>
       <use xlink:href="#m957df9964e" x="73.525625" y="207.586354" style="stroke: #000000; stroke-width: 0.8"/>
      </g>
     </g>
     <g id="text_16">
      <!-- 100 -->
      <g transform="translate(31.66 214.759791) scale(0.2 -0.2)">
       <use xlink:href="#Helvetica-31"/>
       <use xlink:href="#Helvetica-30" x="55.615234"/>
       <use xlink:href="#Helvetica-30" x="111.230469"/>
      </g>
     </g>
    </g>
    <g id="ytick_5">
     <g id="line2d_27">
      <g>
       <use xlink:href="#m957df9964e" x="73.525625" y="168.94377" style="stroke: #000000; stroke-width: 0.8"/>
      </g>
     </g>
     <g id="text_17">
      <!-- 110 -->
      <g transform="translate(31.66 176.117208) scale(0.2 -0.2)">
       <use xlink:href="#Helvetica-31"/>
       <use xlink:href="#Helvetica-31" x="55.615234"/>
       <use xlink:href="#Helvetica-30" x="111.230469"/>
      </g>
     </g>
    </g>
    <g id="ytick_6">
     <g id="line2d_28">
      <g>
       <use xlink:href="#m957df9964e" x="73.525625" y="130.301187" style="stroke: #000000; stroke-width: 0.8"/>
      </g>
     </g>
     <g id="text_18">
      <!-- 120 -->
      <g transform="translate(31.66 137.474625) scale(0.2 -0.2)">
       <use xlink:href="#Helvetica-31"/>
       <use xlink:href="#Helvetica-32" x="55.615234"/>
       <use xlink:href="#Helvetica-30" x="111.230469"/>
      </g>
     </g>
    </g>
    <g id="ytick_7">
     <g id="line2d_29">
      <g>
       <use xlink:href="#m957df9964e" x="73.525625" y="91.658604" style="stroke: #000000; stroke-width: 0.8"/>
      </g>
     </g>
     <g id="text_19">
      <!-- 130 -->
      <g transform="translate(31.66 98.832041) scale(0.2 -0.2)">
       <defs>
        <path id="Helvetica-33" d="M 1663 -122 
Q 869 -122 511 314 
Q 153 750 153 1375 
L 741 1375 
Q 778 941 903 744 
Q 1122 391 1694 391 
Q 2138 391 2406 628 
Q 2675 866 2675 1241 
Q 2675 1703 2392 1887 
Q 2109 2072 1606 2072 
Q 1550 2072 1492 2070 
Q 1434 2069 1375 2066 
L 1375 2563 
Q 1463 2553 1522 2550 
Q 1581 2547 1650 2547 
Q 1966 2547 2169 2647 
Q 2525 2822 2525 3272 
Q 2525 3606 2287 3787 
Q 2050 3969 1734 3969 
Q 1172 3969 956 3594 
Q 838 3388 822 3006 
L 266 3006 
Q 266 3506 466 3856 
Q 809 4481 1675 4481 
Q 2359 4481 2734 4176 
Q 3109 3872 3109 3294 
Q 3109 2881 2888 2625 
Q 2750 2466 2531 2375 
Q 2884 2278 3082 2001 
Q 3281 1725 3281 1325 
Q 3281 684 2859 281 
Q 2438 -122 1663 -122 
z
" transform="scale(0.015625)"/>
       </defs>
       <use xlink:href="#Helvetica-31"/>
       <use xlink:href="#Helvetica-33" x="55.615234"/>
       <use xlink:href="#Helvetica-30" x="111.230469"/>
      </g>
     </g>
    </g>
    <g id="ytick_8">
     <g id="line2d_30">
      <g>
       <use xlink:href="#m957df9964e" x="73.525625" y="53.016021" style="stroke: #000000; stroke-width: 0.8"/>
      </g>
     </g>
     <g id="text_20">
      <!-- 140 -->
      <g transform="translate(31.66 60.189458) scale(0.2 -0.2)">
       <use xlink:href="#Helvetica-31"/>
       <use xlink:href="#Helvetica-34" x="55.615234"/>
       <use xlink:href="#Helvetica-30" x="111.230469"/>
      </g>
     </g>
    </g>
    <g id="ytick_9">
     <g id="line2d_31">
      <g>
       <use xlink:href="#m957df9964e" x="73.525625" y="14.373437" style="stroke: #000000; stroke-width: 0.8"/>
      </g>
     </g>
     <g id="text_21">
      <!-- 150 -->
      <g transform="translate(31.66 21.546875) scale(0.2 -0.2)">
       <defs>
        <path id="Helvetica-35" d="M 791 1141 
Q 847 659 1238 475 
Q 1438 381 1700 381 
Q 2200 381 2440 700 
Q 2681 1019 2681 1406 
Q 2681 1875 2395 2131 
Q 2109 2388 1709 2388 
Q 1419 2388 1211 2275 
Q 1003 2163 856 1963 
L 369 1991 
L 709 4400 
L 3034 4400 
L 3034 3856 
L 1131 3856 
L 941 2613 
Q 1097 2731 1238 2791 
Q 1488 2894 1816 2894 
Q 2431 2894 2859 2497 
Q 3288 2100 3288 1491 
Q 3288 856 2895 371 
Q 2503 -113 1644 -113 
Q 1097 -113 676 195 
Q 256 503 206 1141 
L 791 1141 
z
" transform="scale(0.015625)"/>
       </defs>
       <use xlink:href="#Helvetica-31"/>
       <use xlink:href="#Helvetica-35" x="55.615234"/>
       <use xlink:href="#Helvetica-30" x="111.230469"/>
      </g>
     </g>
    </g>
    <g id="text_22">
     <!-- $\Delta$H [meV/at] -->
     <g transform="translate(23.074375 228.45377) rotate(-90) scale(0.22 -0.22)">
      <defs>
       <path id="DejaVuSans-394" d="M 2188 4044 
L 906 525 
L 3472 525 
L 2188 4044 
z
M 50 0 
L 1831 4666 
L 2547 4666 
L 4325 0 
L 50 0 
z
" transform="scale(0.015625)"/>
       <path id="Helvetica-48" d="M 503 4591 
L 1131 4591 
L 1131 2694 
L 3519 2694 
L 3519 4591 
L 4147 4591 
L 4147 0 
L 3519 0 
L 3519 2147 
L 1131 2147 
L 1131 0 
L 503 0 
L 503 4591 
z
" transform="scale(0.015625)"/>
       <path id="Helvetica-20" transform="scale(0.015625)"/>
       <path id="Helvetica-5b" d="M 400 4622 
L 1600 4622 
L 1600 4163 
L 931 4163 
L 931 -800 
L 1600 -800 
L 1600 -1259 
L 400 -1259 
L 400 4622 
z
" transform="scale(0.015625)"/>
       <path id="Helvetica-6d" d="M 413 3347 
L 969 3347 
L 969 2872 
Q 1169 3119 1331 3231 
Q 1609 3422 1963 3422 
Q 2363 3422 2606 3225 
Q 2744 3113 2856 2894 
Q 3044 3163 3297 3292 
Q 3550 3422 3866 3422 
Q 4541 3422 4784 2934 
Q 4916 2672 4916 2228 
L 4916 0 
L 4331 0 
L 4331 2325 
Q 4331 2659 4164 2784 
Q 3997 2909 3756 2909 
Q 3425 2909 3186 2687 
Q 2947 2466 2947 1947 
L 2947 0 
L 2375 0 
L 2375 2184 
Q 2375 2525 2294 2681 
Q 2166 2916 1816 2916 
Q 1497 2916 1236 2669 
Q 975 2422 975 1775 
L 975 0 
L 413 0 
L 413 3347 
z
" transform="scale(0.015625)"/>
       <path id="Helvetica-65" d="M 1806 3422 
Q 2163 3422 2497 3255 
Q 2831 3088 3006 2822 
Q 3175 2569 3231 2231 
Q 3281 2000 3281 1494 
L 828 1494 
Q 844 984 1069 676 
Q 1294 369 1766 369 
Q 2206 369 2469 659 
Q 2619 828 2681 1050 
L 3234 1050 
Q 3213 866 3089 639 
Q 2966 413 2813 269 
Q 2556 19 2178 -69 
Q 1975 -119 1719 -119 
Q 1094 -119 659 336 
Q 225 791 225 1609 
Q 225 2416 662 2919 
Q 1100 3422 1806 3422 
z
M 2703 1941 
Q 2669 2306 2544 2525 
Q 2313 2931 1772 2931 
Q 1384 2931 1121 2651 
Q 859 2372 844 1941 
L 2703 1941 
z
M 1753 3428 
L 1753 3428 
z
" transform="scale(0.015625)"/>
       <path id="Helvetica-56" d="M 850 4591 
L 2169 681 
L 3472 4591 
L 4169 4591 
L 2494 0 
L 1834 0 
L 163 4591 
L 850 4591 
z
" transform="scale(0.015625)"/>
       <path id="Helvetica-2f" d="M 1456 4591 
L 1931 4591 
L 475 0 
L 0 0 
L 1456 4591 
z
" transform="scale(0.015625)"/>
       <path id="Helvetica-61" d="M 844 891 
Q 844 647 1022 506 
Q 1200 366 1444 366 
Q 1741 366 2019 503 
Q 2488 731 2488 1250 
L 2488 1703 
Q 2384 1638 2221 1594 
Q 2059 1550 1903 1531 
L 1563 1488 
Q 1256 1447 1103 1359 
Q 844 1213 844 891 
z
M 2206 2028 
Q 2400 2053 2466 2191 
Q 2503 2266 2503 2406 
Q 2503 2694 2298 2823 
Q 2094 2953 1713 2953 
Q 1272 2953 1088 2716 
Q 984 2584 953 2325 
L 428 2325 
Q 444 2944 830 3186 
Q 1216 3428 1725 3428 
Q 2316 3428 2684 3203 
Q 3050 2978 3050 2503 
L 3050 575 
Q 3050 488 3086 434 
Q 3122 381 3238 381 
Q 3275 381 3322 386 
Q 3369 391 3422 400 
L 3422 -16 
Q 3291 -53 3222 -62 
Q 3153 -72 3034 -72 
Q 2744 -72 2613 134 
Q 2544 244 2516 444 
Q 2344 219 2022 53 
Q 1700 -113 1313 -113 
Q 847 -113 551 170 
Q 256 453 256 878 
Q 256 1344 547 1600 
Q 838 1856 1309 1916 
L 2206 2028 
z
M 1741 3428 
L 1741 3428 
z
" transform="scale(0.015625)"/>
       <path id="Helvetica-74" d="M 525 4281 
L 1094 4281 
L 1094 3347 
L 1628 3347 
L 1628 2888 
L 1094 2888 
L 1094 703 
Q 1094 528 1213 469 
Q 1278 434 1431 434 
Q 1472 434 1519 436 
Q 1566 438 1628 444 
L 1628 0 
Q 1531 -28 1426 -40 
Q 1322 -53 1200 -53 
Q 806 -53 665 148 
Q 525 350 525 672 
L 525 2888 
L 72 2888 
L 72 3347 
L 525 3347 
L 525 4281 
z
" transform="scale(0.015625)"/>
       <path id="Helvetica-5d" d="M 147 -800 
L 813 -800 
L 813 4163 
L 147 4163 
L 147 4622 
L 1347 4622 
L 1347 -1259 
L 147 -1259 
L 147 -800 
z
" transform="scale(0.015625)"/>
      </defs>
      <use xlink:href="#DejaVuSans-394" transform="translate(0 0.09375)"/>
      <use xlink:href="#Helvetica-48" transform="translate(68.408203 0.09375)"/>
      <use xlink:href="#Helvetica-20" transform="translate(140.625 0.09375)"/>
      <use xlink:href="#Helvetica-5b" transform="translate(168.408203 0.09375)"/>
      <use xlink:href="#Helvetica-6d" transform="translate(196.191406 0.09375)"/>
      <use xlink:href="#Helvetica-65" transform="translate(279.492188 0.09375)"/>
      <use xlink:href="#Helvetica-56" transform="translate(335.107422 0.09375)"/>
      <use xlink:href="#Helvetica-2f" transform="translate(401.806641 0.09375)"/>
      <use xlink:href="#Helvetica-61" transform="translate(429.589844 0.09375)"/>
      <use xlink:href="#Helvetica-74" transform="translate(485.205078 0.09375)"/>
      <use xlink:href="#Helvetica-5d" transform="translate(512.988281 0.09375)"/>
     </g>
    </g>
   </g>
   <g id="line2d_32">
    <path d="M 75.727673 9.637109 
L 97.748149 194.199056 
L 119.768625 204.648745 
L 141.789101 205.596989 
L 163.809577 210.117045 
L 185.830054 210.536037 
L 207.85053 215.657317 
L 229.871006 217.195223 
L 251.891482 209.357391 
L 273.911958 214.100954 
L 295.932435 210.677288 
" clip-path="url(#pc40d13bd86)" style="fill: none; stroke: #1f77b4; stroke-width: 2; stroke-linecap: square"/>
   </g>
   <g id="line2d_33">
    <path clip-path="url(#pc40d13bd86)" style="fill: none; stroke: #1f77b4; stroke-width: 2; stroke-linecap: square"/>
    <defs>
     <path id="m321785b11e" d="M 0 7 
C 1.856422 7 3.637059 6.262436 4.949747 4.949747 
C 6.262436 3.637059 7 1.856422 7 0 
C 7 -1.856422 6.262436 -3.637059 4.949747 -4.949747 
C 3.637059 -6.262436 1.856422 -7 0 -7 
C -1.856422 -7 -3.637059 -6.262436 -4.949747 -4.949747 
C -6.262436 -3.637059 -7 -1.856422 -7 0 
C -7 1.856422 -6.262436 3.637059 -4.949747 4.949747 
C -3.637059 6.262436 -1.856422 7 0 7 
z
" style="stroke: #ffffff"/>
    </defs>
    <g clip-path="url(#pc40d13bd86)">
     <use xlink:href="#m321785b11e" x="51.505149" y="594.012186" style="fill: #1f77b4; stroke: #ffffff"/>
     <use xlink:href="#m321785b11e" x="51.505149" y="594.012186" style="fill: #1f77b4; stroke: #ffffff"/>
    </g>
   </g>
   <g id="line2d_34">
    <path d="M 75.727673 44.281903 
L 97.748149 160.767338 
L 119.768625 168.979262 
L 141.789101 174.275072 
L 163.809577 173.687801 
L 185.830054 174.037368 
L 207.85053 176.034371 
L 229.871006 177.761853 
L 251.891482 175.110874 
L 273.911958 178.855008 
L 295.932435 178.335297 
L 317.952911 181.83596 
L 339.973387 177.904469 
L 361.993863 179.818322 
L 384.014339 181.118607 
L 406.034815 179.677966 
L 428.055292 179.371863 
L 450.075768 181.903322 
L 472.096244 182.369428 
L 494.11672 180.8574 
L 516.137196 180.408957 
L 535.955625 184.921301 
" clip-path="url(#pc40d13bd86)" style="fill: none; stroke: #ff7f0e; stroke-width: 2; stroke-linecap: square"/>
   </g>
   <g id="line2d_35">
    <path clip-path="url(#pc40d13bd86)" style="fill: none; stroke: #ff7f0e; stroke-width: 2; stroke-linecap: square"/>
    <defs>
     <path id="m1c04da76ce" d="M -7 7 
L 7 7 
L 7 -7 
L -7 -7 
z
" style="stroke: #ffffff; stroke-linejoin: miter"/>
    </defs>
    <g clip-path="url(#pc40d13bd86)">
     <use xlink:href="#m1c04da76ce" x="51.505149" y="594.012186" style="fill: #ff7f0e; stroke: #ffffff; stroke-linejoin: miter"/>
     <use xlink:href="#m1c04da76ce" x="51.505149" y="594.012186" style="fill: #ff7f0e; stroke: #ffffff; stroke-linejoin: miter"/>
    </g>
   </g>
   <g id="line2d_36">
    <path d="M 75.727673 35.038127 
L 97.748149 157.948044 
L 119.768625 167.302746 
L 141.789101 171.550348 
L 163.809577 173.569511 
L 185.830054 178.819023 
L 207.85053 179.634085 
L 229.871006 179.555767 
L 251.891482 178.69431 
L 273.911958 183.843657 
L 295.932435 182.4606 
L 317.952911 184.464035 
L 339.973387 184.391388 
L 361.993863 184.933212 
L 384.014339 185.721259 
L 406.034815 182.519378 
L 428.055292 185.712218 
L 450.075768 186.004382 
L 472.096244 188.710278 
L 494.11672 190.668989 
L 516.137196 187.268138 
L 535.955625 196.018976 
" clip-path="url(#pc40d13bd86)" style="fill: none; stroke: #2ca02c; stroke-width: 2; stroke-linecap: square"/>
   </g>
   <g id="line2d_37">
    <path clip-path="url(#pc40d13bd86)" style="fill: none; stroke: #2ca02c; stroke-width: 2; stroke-linecap: square"/>
    <defs>
     <path id="me018894a41" d="M -0 9.899495 
L 9.899495 0 
L 0 -9.899495 
L -9.899495 -0 
z
" style="stroke: #ffffff; stroke-linejoin: miter"/>
    </defs>
    <g clip-path="url(#pc40d13bd86)">
     <use xlink:href="#me018894a41" x="51.505149" y="594.012186" style="fill: #2ca02c; stroke: #ffffff; stroke-linejoin: miter"/>
     <use xlink:href="#me018894a41" x="51.505149" y="594.012186" style="fill: #2ca02c; stroke: #ffffff; stroke-linejoin: miter"/>
    </g>
   </g>
   <g id="line2d_38">
    <path d="M 75.727673 61.222229 
L 97.748149 160.020741 
L 119.768625 162.765999 
L 141.789101 168.243683 
L 163.809577 170.538627 
L 185.830054 174.684824 
L 207.85053 173.009154 
L 229.871006 177.550192 
L 251.891482 177.320427 
L 273.911958 178.8766 
L 295.932435 179.515727 
L 317.952911 179.538745 
L 339.973387 179.546477 
L 361.993863 179.984837 
L 384.014339 182.039739 
L 406.034815 182.189163 
L 428.055292 182.337316 
L 450.075768 182.006231 
L 472.096244 181.169609 
L 494.11672 180.252013 
L 516.137196 184.889433 
L 535.955625 183.656249 
" clip-path="url(#pc40d13bd86)" style="fill: none; stroke: #d62728; stroke-width: 2; stroke-linecap: square"/>
   </g>
   <g id="line2d_39">
    <path clip-path="url(#pc40d13bd86)" style="fill: none; stroke: #d62728; stroke-width: 2; stroke-linecap: square"/>
    <defs>
     <path id="maa1b96024c" d="M 0 -8 
L -8 8 
L 8 8 
z
" style="stroke: #ffffff; stroke-linejoin: miter"/>
    </defs>
    <g clip-path="url(#pc40d13bd86)">
     <use xlink:href="#maa1b96024c" x="51.505149" y="594.012186" style="fill: #d62728; stroke: #ffffff; stroke-linejoin: miter"/>
     <use xlink:href="#maa1b96024c" x="51.505149" y="594.012186" style="fill: #d62728; stroke: #ffffff; stroke-linejoin: miter"/>
    </g>
   </g>
   <g id="line2d_40">
    <path d="M 75.727673 180.290174 
L 97.748149 251.627838 
L 119.768625 254.120439 
L 141.789101 257.986757 
L 163.809577 260.595917 
L 185.830054 262.734464 
L 207.85053 264.24956 
L 229.871006 263.993086 
L 251.891482 265.582507 
L 273.911958 262.543253 
L 295.932435 263.206347 
L 317.952911 262.785575 
L 339.973387 265.483115 
L 361.993863 264.958812 
L 384.014339 264.058085 
L 406.034815 265.038599 
L 428.055292 266.518861 
L 450.075768 266.708687 
L 472.096244 264.682036 
L 494.11672 263.473493 
L 516.137196 264.033438 
L 535.955625 263.830297 
" clip-path="url(#pc40d13bd86)" style="fill: none; stroke: #8d17c4; stroke-width: 2; stroke-linecap: square"/>
   </g>
   <g id="line2d_41">
    <path clip-path="url(#pc40d13bd86)" style="fill: none; stroke: #8d17c4; stroke-width: 2; stroke-linecap: square"/>
    <defs>
     <path id="m38cebe2115" d="M 0 -8 
L -7.608452 -2.472136 
L -4.702282 6.472136 
L 4.702282 6.472136 
L 7.608452 -2.472136 
z
" style="stroke: #ffffff; stroke-linejoin: miter"/>
    </defs>
    <g clip-path="url(#pc40d13bd86)">
     <use xlink:href="#m38cebe2115" x="51.505149" y="594.012186" style="fill: #8d17c4; stroke: #ffffff; stroke-linejoin: miter"/>
     <use xlink:href="#m38cebe2115" x="51.505149" y="594.012186" style="fill: #8d17c4; stroke: #ffffff; stroke-linejoin: miter"/>
    </g>
   </g>
   <g id="patch_3">
    <path d="M 73.525625 323.514103 
L 73.525625 14.373437 
" style="fill: none; stroke: #000000; stroke-width: 0.8; stroke-linejoin: miter; stroke-linecap: square"/>
   </g>
   <g id="patch_4">
    <path d="M 535.955625 323.514103 
L 535.955625 14.373437 
" style="fill: none; stroke: #000000; stroke-width: 0.8; stroke-linejoin: miter; stroke-linecap: square"/>
   </g>
   <g id="patch_5">
    <path d="M 73.525625 323.514103 
L 535.955625 323.514103 
" style="fill: none; stroke: #000000; stroke-width: 0.8; stroke-linejoin: miter; stroke-linecap: square"/>
   </g>
   <g id="patch_6">
    <path d="M 73.525625 14.373437 
L 535.955625 14.373437 
" style="fill: none; stroke: #000000; stroke-width: 0.8; stroke-linejoin: miter; stroke-linecap: square"/>
   </g>
   <g id="legend_1">
    <g id="patch_7">
     <path d="M 170.660625 72.798437 
L 438.820625 72.798437 
Q 442.020625 72.798437 442.020625 69.598437 
L 442.020625 25.573437 
Q 442.020625 22.373437 438.820625 22.373437 
L 170.660625 22.373437 
Q 167.460625 22.373437 167.460625 25.573437 
L 167.460625 69.598437 
Q 167.460625 72.798437 170.660625 72.798437 
z
" style="fill: #ffffff; opacity: 0.8; stroke: #cccccc; stroke-linejoin: miter"/>
    </g>
    <g id="line2d_42">
     <path d="M 173.860625 34.650937 
L 185.860625 34.650937 
L 197.860625 34.650937 
" style="fill: none; stroke: #1f77b4; stroke-width: 2; stroke-linecap: square"/>
     <g>
      <use xlink:href="#m321785b11e" x="185.860625" y="34.650937" style="fill: #1f77b4; stroke: #ffffff"/>
     </g>
    </g>
    <g id="text_23">
     <!-- A$_1$B -->
     <g transform="translate(210.660625 40.250937) scale(0.16 -0.16)">
      <defs>
       <path id="Helvetica-41" d="M 2844 1881 
L 2147 3909 
L 1406 1881 
L 2844 1881 
z
M 1822 4591 
L 2525 4591 
L 4191 0 
L 3509 0 
L 3044 1375 
L 1228 1375 
L 731 0 
L 94 0 
L 1822 4591 
z
M 2144 4591 
L 2144 4591 
z
" transform="scale(0.015625)"/>
       <path id="DejaVuSans-31" d="M 794 531 
L 1825 531 
L 1825 4091 
L 703 3866 
L 703 4441 
L 1819 4666 
L 2450 4666 
L 2450 531 
L 3481 531 
L 3481 0 
L 794 0 
L 794 531 
z
" transform="scale(0.015625)"/>
       <path id="Helvetica-42" d="M 2213 2650 
Q 2606 2650 2825 2759 
Q 3169 2931 3169 3378 
Q 3169 3828 2803 3984 
Q 2597 4072 2191 4072 
L 1081 4072 
L 1081 2650 
L 2213 2650 
z
M 2422 531 
Q 2994 531 3238 863 
Q 3391 1072 3391 1369 
Q 3391 1869 2944 2050 
Q 2706 2147 2316 2147 
L 1081 2147 
L 1081 531 
L 2422 531 
z
M 472 4591 
L 2444 4591 
Q 3250 4591 3591 4109 
Q 3791 3825 3791 3453 
Q 3791 3019 3544 2741 
Q 3416 2594 3175 2472 
Q 3528 2338 3703 2169 
Q 4013 1869 4013 1341 
Q 4013 897 3734 538 
Q 3319 0 2413 0 
L 472 0 
L 472 4591 
z
" transform="scale(0.015625)"/>
      </defs>
      <use xlink:href="#Helvetica-41" transform="translate(0 0.265625)"/>
      <use xlink:href="#DejaVuSans-31" transform="translate(67.65625 -16.140625) scale(0.7)"/>
      <use xlink:href="#Helvetica-42" transform="translate(114.926758 0.265625)"/>
     </g>
    </g>
    <g id="line2d_43">
     <path d="M 173.860625 57.463437 
L 185.860625 57.463437 
L 197.860625 57.463437 
" style="fill: none; stroke: #ff7f0e; stroke-width: 2; stroke-linecap: square"/>
     <g>
      <use xlink:href="#m1c04da76ce" x="185.860625" y="57.463437" style="fill: #ff7f0e; stroke: #ffffff; stroke-linejoin: miter"/>
     </g>
    </g>
    <g id="text_24">
     <!-- A$_2$B -->
     <g transform="translate(210.660625 63.063437) scale(0.16 -0.16)">
      <defs>
       <path id="DejaVuSans-32" d="M 1228 531 
L 3431 531 
L 3431 0 
L 469 0 
L 469 531 
Q 828 903 1448 1529 
Q 2069 2156 2228 2338 
Q 2531 2678 2651 2914 
Q 2772 3150 2772 3378 
Q 2772 3750 2511 3984 
Q 2250 4219 1831 4219 
Q 1534 4219 1204 4116 
Q 875 4013 500 3803 
L 500 4441 
Q 881 4594 1212 4672 
Q 1544 4750 1819 4750 
Q 2544 4750 2975 4387 
Q 3406 4025 3406 3419 
Q 3406 3131 3298 2873 
Q 3191 2616 2906 2266 
Q 2828 2175 2409 1742 
Q 1991 1309 1228 531 
z
" transform="scale(0.015625)"/>
      </defs>
      <use xlink:href="#Helvetica-41" transform="translate(0 0.265625)"/>
      <use xlink:href="#DejaVuSans-32" transform="translate(67.65625 -16.140625) scale(0.7)"/>
      <use xlink:href="#Helvetica-42" transform="translate(114.926758 0.265625)"/>
     </g>
    </g>
    <g id="line2d_44">
     <path d="M 271.780625 34.650937 
L 283.780625 34.650937 
L 295.780625 34.650937 
" style="fill: none; stroke: #2ca02c; stroke-width: 2; stroke-linecap: square"/>
     <g>
      <use xlink:href="#me018894a41" x="283.780625" y="34.650937" style="fill: #2ca02c; stroke: #ffffff; stroke-linejoin: miter"/>
     </g>
    </g>
    <g id="text_25">
     <!-- A$_3$B -->
     <g transform="translate(308.580625 40.250937) scale(0.16 -0.16)">
      <defs>
       <path id="DejaVuSans-33" d="M 2597 2516 
Q 3050 2419 3304 2112 
Q 3559 1806 3559 1356 
Q 3559 666 3084 287 
Q 2609 -91 1734 -91 
Q 1441 -91 1130 -33 
Q 819 25 488 141 
L 488 750 
Q 750 597 1062 519 
Q 1375 441 1716 441 
Q 2309 441 2620 675 
Q 2931 909 2931 1356 
Q 2931 1769 2642 2001 
Q 2353 2234 1838 2234 
L 1294 2234 
L 1294 2753 
L 1863 2753 
Q 2328 2753 2575 2939 
Q 2822 3125 2822 3475 
Q 2822 3834 2567 4026 
Q 2313 4219 1838 4219 
Q 1578 4219 1281 4162 
Q 984 4106 628 3988 
L 628 4550 
Q 988 4650 1302 4700 
Q 1616 4750 1894 4750 
Q 2613 4750 3031 4423 
Q 3450 4097 3450 3541 
Q 3450 3153 3228 2886 
Q 3006 2619 2597 2516 
z
" transform="scale(0.015625)"/>
      </defs>
      <use xlink:href="#Helvetica-41" transform="translate(0 0.265625)"/>
      <use xlink:href="#DejaVuSans-33" transform="translate(67.65625 -16.140625) scale(0.7)"/>
      <use xlink:href="#Helvetica-42" transform="translate(114.926758 0.265625)"/>
     </g>
    </g>
    <g id="line2d_45">
     <path d="M 271.780625 57.463437 
L 283.780625 57.463437 
L 295.780625 57.463437 
" style="fill: none; stroke: #d62728; stroke-width: 2; stroke-linecap: square"/>
     <g>
      <use xlink:href="#maa1b96024c" x="283.780625" y="57.463437" style="fill: #d62728; stroke: #ffffff; stroke-linejoin: miter"/>
     </g>
    </g>
    <g id="text_26">
     <!-- A$_4$B -->
     <g transform="translate(308.580625 63.063437) scale(0.16 -0.16)">
      <defs>
       <path id="DejaVuSans-34" d="M 2419 4116 
L 825 1625 
L 2419 1625 
L 2419 4116 
z
M 2253 4666 
L 3047 4666 
L 3047 1625 
L 3713 1625 
L 3713 1100 
L 3047 1100 
L 3047 0 
L 2419 0 
L 2419 1100 
L 313 1100 
L 313 1709 
L 2253 4666 
z
" transform="scale(0.015625)"/>
      </defs>
      <use xlink:href="#Helvetica-41" transform="translate(0 0.265625)"/>
      <use xlink:href="#DejaVuSans-34" transform="translate(67.65625 -16.140625) scale(0.7)"/>
      <use xlink:href="#Helvetica-42" transform="translate(114.926758 0.265625)"/>
     </g>
    </g>
    <g id="line2d_46">
     <path d="M 369.700625 34.650937 
L 381.700625 34.650937 
L 393.700625 34.650937 
" style="fill: none; stroke: #8d17c4; stroke-width: 2; stroke-linecap: square"/>
     <g>
      <use xlink:href="#m38cebe2115" x="381.700625" y="34.650937" style="fill: #8d17c4; stroke: #ffffff; stroke-linejoin: miter"/>
     </g>
    </g>
    <g id="text_27">
     <!-- A$_6$B -->
     <g transform="translate(406.500625 40.250937) scale(0.16 -0.16)">
      <defs>
       <path id="DejaVuSans-36" d="M 2113 2584 
Q 1688 2584 1439 2293 
Q 1191 2003 1191 1497 
Q 1191 994 1439 701 
Q 1688 409 2113 409 
Q 2538 409 2786 701 
Q 3034 994 3034 1497 
Q 3034 2003 2786 2293 
Q 2538 2584 2113 2584 
z
M 3366 4563 
L 3366 3988 
Q 3128 4100 2886 4159 
Q 2644 4219 2406 4219 
Q 1781 4219 1451 3797 
Q 1122 3375 1075 2522 
Q 1259 2794 1537 2939 
Q 1816 3084 2150 3084 
Q 2853 3084 3261 2657 
Q 3669 2231 3669 1497 
Q 3669 778 3244 343 
Q 2819 -91 2113 -91 
Q 1303 -91 875 529 
Q 447 1150 447 2328 
Q 447 3434 972 4092 
Q 1497 4750 2381 4750 
Q 2619 4750 2861 4703 
Q 3103 4656 3366 4563 
z
" transform="scale(0.015625)"/>
      </defs>
      <use xlink:href="#Helvetica-41" transform="translate(0 0.265625)"/>
      <use xlink:href="#DejaVuSans-36" transform="translate(67.65625 -16.140625) scale(0.7)"/>
      <use xlink:href="#Helvetica-42" transform="translate(114.926758 0.265625)"/>
     </g>
    </g>
   </g>
   <g id="PathCollection_1">
    <defs>
     <path id="m45f6f463b4" d="M 0 5.91608 
C 1.568963 5.91608 3.073876 5.292724 4.1833 4.1833 
C 5.292724 3.073876 5.91608 1.568963 5.91608 0 
C 5.91608 -1.568963 5.292724 -3.073876 4.1833 -4.1833 
C 3.073876 -5.292724 1.568963 -5.91608 0 -5.91608 
C -1.568963 -5.91608 -3.073876 -5.292724 -4.1833 -4.1833 
C -5.292724 -3.073876 -5.91608 -1.568963 -5.91608 0 
C -5.91608 1.568963 -5.292724 3.073876 -4.1833 4.1833 
C -3.073876 5.292724 -1.568963 5.91608 0 5.91608 
z
" style="stroke: #ffffff"/>
    </defs>
    <g clip-path="url(#pc40d13bd86)">
     <use xlink:href="#m45f6f463b4" x="75.727673" y="9.637109" style="fill: #1f77b4; stroke: #ffffff"/>
     <use xlink:href="#m45f6f463b4" x="97.748149" y="194.199056" style="fill: #1f77b4; stroke: #ffffff"/>
     <use xlink:href="#m45f6f463b4" x="119.768625" y="204.648745" style="fill: #1f77b4; stroke: #ffffff"/>
     <use xlink:href="#m45f6f463b4" x="141.789101" y="205.596989" style="fill: #1f77b4; stroke: #ffffff"/>
     <use xlink:href="#m45f6f463b4" x="163.809577" y="210.117045" style="fill: #1f77b4; stroke: #ffffff"/>
     <use xlink:href="#m45f6f463b4" x="185.830054" y="210.536037" style="fill: #1f77b4; stroke: #ffffff"/>
     <use xlink:href="#m45f6f463b4" x="207.85053" y="215.657317" style="fill: #1f77b4; stroke: #ffffff"/>
     <use xlink:href="#m45f6f463b4" x="229.871006" y="217.195223" style="fill: #1f77b4; stroke: #ffffff"/>
     <use xlink:href="#m45f6f463b4" x="251.891482" y="209.357391" style="fill: #1f77b4; stroke: #ffffff"/>
     <use xlink:href="#m45f6f463b4" x="273.911958" y="214.100954" style="fill: #1f77b4; stroke: #ffffff"/>
     <use xlink:href="#m45f6f463b4" x="295.932435" y="210.677288" style="fill: #1f77b4; stroke: #ffffff"/>
    </g>
   </g>
   <g id="PathCollection_2">
    <defs>
     <path id="m9c0b896072" d="M -5.91608 5.91608 
L 5.91608 5.91608 
L 5.91608 -5.91608 
L -5.91608 -5.91608 
z
" style="stroke: #ffffff"/>
    </defs>
    <g clip-path="url(#pc40d13bd86)">
     <use xlink:href="#m9c0b896072" x="75.727673" y="44.281903" style="fill: #ff7f0e; stroke: #ffffff"/>
     <use xlink:href="#m9c0b896072" x="97.748149" y="160.767338" style="fill: #ff7f0e; stroke: #ffffff"/>
     <use xlink:href="#m9c0b896072" x="119.768625" y="168.979262" style="fill: #ff7f0e; stroke: #ffffff"/>
     <use xlink:href="#m9c0b896072" x="141.789101" y="174.275072" style="fill: #ff7f0e; stroke: #ffffff"/>
     <use xlink:href="#m9c0b896072" x="163.809577" y="173.687801" style="fill: #ff7f0e; stroke: #ffffff"/>
     <use xlink:href="#m9c0b896072" x="185.830054" y="174.037368" style="fill: #ff7f0e; stroke: #ffffff"/>
     <use xlink:href="#m9c0b896072" x="207.85053" y="176.034371" style="fill: #ff7f0e; stroke: #ffffff"/>
     <use xlink:href="#m9c0b896072" x="229.871006" y="177.761853" style="fill: #ff7f0e; stroke: #ffffff"/>
     <use xlink:href="#m9c0b896072" x="251.891482" y="175.110874" style="fill: #ff7f0e; stroke: #ffffff"/>
     <use xlink:href="#m9c0b896072" x="273.911958" y="178.855008" style="fill: #ff7f0e; stroke: #ffffff"/>
     <use xlink:href="#m9c0b896072" x="295.932435" y="178.335297" style="fill: #ff7f0e; stroke: #ffffff"/>
     <use xlink:href="#m9c0b896072" x="317.952911" y="181.83596" style="fill: #ff7f0e; stroke: #ffffff"/>
     <use xlink:href="#m9c0b896072" x="339.973387" y="177.904469" style="fill: #ff7f0e; stroke: #ffffff"/>
     <use xlink:href="#m9c0b896072" x="361.993863" y="179.818322" style="fill: #ff7f0e; stroke: #ffffff"/>
     <use xlink:href="#m9c0b896072" x="384.014339" y="181.118607" style="fill: #ff7f0e; stroke: #ffffff"/>
     <use xlink:href="#m9c0b896072" x="406.034815" y="179.677966" style="fill: #ff7f0e; stroke: #ffffff"/>
     <use xlink:href="#m9c0b896072" x="428.055292" y="179.371863" style="fill: #ff7f0e; stroke: #ffffff"/>
     <use xlink:href="#m9c0b896072" x="450.075768" y="181.903322" style="fill: #ff7f0e; stroke: #ffffff"/>
     <use xlink:href="#m9c0b896072" x="472.096244" y="182.369428" style="fill: #ff7f0e; stroke: #ffffff"/>
     <use xlink:href="#m9c0b896072" x="494.11672" y="180.8574" style="fill: #ff7f0e; stroke: #ffffff"/>
     <use xlink:href="#m9c0b896072" x="516.137196" y="180.408957" style="fill: #ff7f0e; stroke: #ffffff"/>
     <use xlink:href="#m9c0b896072" x="535.955625" y="184.921301" style="fill: #ff7f0e; stroke: #ffffff"/>
    </g>
   </g>
   <g id="PathCollection_3">
    <defs>
     <path id="m56f8605781" d="M -0 8.3666 
L 8.3666 0 
L 0 -8.3666 
L -8.3666 -0 
z
" style="stroke: #ffffff"/>
    </defs>
    <g clip-path="url(#pc40d13bd86)">
     <use xlink:href="#m56f8605781" x="75.727673" y="35.038127" style="fill: #2ca02c; stroke: #ffffff"/>
     <use xlink:href="#m56f8605781" x="97.748149" y="157.948044" style="fill: #2ca02c; stroke: #ffffff"/>
     <use xlink:href="#m56f8605781" x="119.768625" y="167.302746" style="fill: #2ca02c; stroke: #ffffff"/>
     <use xlink:href="#m56f8605781" x="141.789101" y="171.550348" style="fill: #2ca02c; stroke: #ffffff"/>
     <use xlink:href="#m56f8605781" x="163.809577" y="173.569511" style="fill: #2ca02c; stroke: #ffffff"/>
     <use xlink:href="#m56f8605781" x="185.830054" y="178.819023" style="fill: #2ca02c; stroke: #ffffff"/>
     <use xlink:href="#m56f8605781" x="207.85053" y="179.634085" style="fill: #2ca02c; stroke: #ffffff"/>
     <use xlink:href="#m56f8605781" x="229.871006" y="179.555767" style="fill: #2ca02c; stroke: #ffffff"/>
     <use xlink:href="#m56f8605781" x="251.891482" y="178.69431" style="fill: #2ca02c; stroke: #ffffff"/>
     <use xlink:href="#m56f8605781" x="273.911958" y="183.843657" style="fill: #2ca02c; stroke: #ffffff"/>
     <use xlink:href="#m56f8605781" x="295.932435" y="182.4606" style="fill: #2ca02c; stroke: #ffffff"/>
     <use xlink:href="#m56f8605781" x="317.952911" y="184.464035" style="fill: #2ca02c; stroke: #ffffff"/>
     <use xlink:href="#m56f8605781" x="339.973387" y="184.391388" style="fill: #2ca02c; stroke: #ffffff"/>
     <use xlink:href="#m56f8605781" x="361.993863" y="184.933212" style="fill: #2ca02c; stroke: #ffffff"/>
     <use xlink:href="#m56f8605781" x="384.014339" y="185.721259" style="fill: #2ca02c; stroke: #ffffff"/>
     <use xlink:href="#m56f8605781" x="406.034815" y="182.519378" style="fill: #2ca02c; stroke: #ffffff"/>
     <use xlink:href="#m56f8605781" x="428.055292" y="185.712218" style="fill: #2ca02c; stroke: #ffffff"/>
     <use xlink:href="#m56f8605781" x="450.075768" y="186.004382" style="fill: #2ca02c; stroke: #ffffff"/>
     <use xlink:href="#m56f8605781" x="472.096244" y="188.710278" style="fill: #2ca02c; stroke: #ffffff"/>
     <use xlink:href="#m56f8605781" x="494.11672" y="190.668989" style="fill: #2ca02c; stroke: #ffffff"/>
     <use xlink:href="#m56f8605781" x="516.137196" y="187.268138" style="fill: #2ca02c; stroke: #ffffff"/>
     <use xlink:href="#m56f8605781" x="535.955625" y="196.018976" style="fill: #2ca02c; stroke: #ffffff"/>
    </g>
   </g>
   <g id="PathCollection_4">
    <defs>
     <path id="mc2747bbfaf" d="M 0 -6.324555 
L -6.324555 6.324555 
L 6.324555 6.324555 
z
" style="stroke: #ffffff"/>
    </defs>
    <g clip-path="url(#pc40d13bd86)">
     <use xlink:href="#mc2747bbfaf" x="75.727673" y="61.222229" style="fill: #d62728; stroke: #ffffff"/>
     <use xlink:href="#mc2747bbfaf" x="97.748149" y="160.020741" style="fill: #d62728; stroke: #ffffff"/>
     <use xlink:href="#mc2747bbfaf" x="119.768625" y="162.765999" style="fill: #d62728; stroke: #ffffff"/>
     <use xlink:href="#mc2747bbfaf" x="141.789101" y="168.243683" style="fill: #d62728; stroke: #ffffff"/>
     <use xlink:href="#mc2747bbfaf" x="163.809577" y="170.538627" style="fill: #d62728; stroke: #ffffff"/>
     <use xlink:href="#mc2747bbfaf" x="185.830054" y="174.684824" style="fill: #d62728; stroke: #ffffff"/>
     <use xlink:href="#mc2747bbfaf" x="207.85053" y="173.009154" style="fill: #d62728; stroke: #ffffff"/>
     <use xlink:href="#mc2747bbfaf" x="229.871006" y="177.550192" style="fill: #d62728; stroke: #ffffff"/>
     <use xlink:href="#mc2747bbfaf" x="251.891482" y="177.320427" style="fill: #d62728; stroke: #ffffff"/>
     <use xlink:href="#mc2747bbfaf" x="273.911958" y="178.8766" style="fill: #d62728; stroke: #ffffff"/>
     <use xlink:href="#mc2747bbfaf" x="295.932435" y="179.515727" style="fill: #d62728; stroke: #ffffff"/>
     <use xlink:href="#mc2747bbfaf" x="317.952911" y="179.538745" style="fill: #d62728; stroke: #ffffff"/>
     <use xlink:href="#mc2747bbfaf" x="339.973387" y="179.546477" style="fill: #d62728; stroke: #ffffff"/>
     <use xlink:href="#mc2747bbfaf" x="361.993863" y="179.984837" style="fill: #d62728; stroke: #ffffff"/>
     <use xlink:href="#mc2747bbfaf" x="384.014339" y="182.039739" style="fill: #d62728; stroke: #ffffff"/>
     <use xlink:href="#mc2747bbfaf" x="406.034815" y="182.189163" style="fill: #d62728; stroke: #ffffff"/>
     <use xlink:href="#mc2747bbfaf" x="428.055292" y="182.337316" style="fill: #d62728; stroke: #ffffff"/>
     <use xlink:href="#mc2747bbfaf" x="450.075768" y="182.006231" style="fill: #d62728; stroke: #ffffff"/>
     <use xlink:href="#mc2747bbfaf" x="472.096244" y="181.169609" style="fill: #d62728; stroke: #ffffff"/>
     <use xlink:href="#mc2747bbfaf" x="494.11672" y="180.252013" style="fill: #d62728; stroke: #ffffff"/>
     <use xlink:href="#mc2747bbfaf" x="516.137196" y="184.889433" style="fill: #d62728; stroke: #ffffff"/>
     <use xlink:href="#mc2747bbfaf" x="535.955625" y="183.656249" style="fill: #d62728; stroke: #ffffff"/>
    </g>
   </g>
   <g id="PathCollection_5">
    <defs>
     <path id="m7050ecaf6e" d="M 0 -6.324555 
L -6.01501 -1.954395 
L -3.71748 5.116673 
L 3.71748 5.116673 
L 6.01501 -1.954395 
z
" style="stroke: #ffffff"/>
    </defs>
    <g clip-path="url(#pc40d13bd86)">
     <use xlink:href="#m7050ecaf6e" x="75.727673" y="180.290174" style="fill: #8d17c4; stroke: #ffffff"/>
     <use xlink:href="#m7050ecaf6e" x="97.748149" y="251.627838" style="fill: #8d17c4; stroke: #ffffff"/>
     <use xlink:href="#m7050ecaf6e" x="119.768625" y="254.120439" style="fill: #8d17c4; stroke: #ffffff"/>
     <use xlink:href="#m7050ecaf6e" x="141.789101" y="257.986757" style="fill: #8d17c4; stroke: #ffffff"/>
     <use xlink:href="#m7050ecaf6e" x="163.809577" y="260.595917" style="fill: #8d17c4; stroke: #ffffff"/>
     <use xlink:href="#m7050ecaf6e" x="185.830054" y="262.734464" style="fill: #8d17c4; stroke: #ffffff"/>
     <use xlink:href="#m7050ecaf6e" x="207.85053" y="264.24956" style="fill: #8d17c4; stroke: #ffffff"/>
     <use xlink:href="#m7050ecaf6e" x="229.871006" y="263.993086" style="fill: #8d17c4; stroke: #ffffff"/>
     <use xlink:href="#m7050ecaf6e" x="251.891482" y="265.582507" style="fill: #8d17c4; stroke: #ffffff"/>
     <use xlink:href="#m7050ecaf6e" x="273.911958" y="262.543253" style="fill: #8d17c4; stroke: #ffffff"/>
     <use xlink:href="#m7050ecaf6e" x="295.932435" y="263.206347" style="fill: #8d17c4; stroke: #ffffff"/>
     <use xlink:href="#m7050ecaf6e" x="317.952911" y="262.785575" style="fill: #8d17c4; stroke: #ffffff"/>
     <use xlink:href="#m7050ecaf6e" x="339.973387" y="265.483115" style="fill: #8d17c4; stroke: #ffffff"/>
     <use xlink:href="#m7050ecaf6e" x="361.993863" y="264.958812" style="fill: #8d17c4; stroke: #ffffff"/>
     <use xlink:href="#m7050ecaf6e" x="384.014339" y="264.058085" style="fill: #8d17c4; stroke: #ffffff"/>
     <use xlink:href="#m7050ecaf6e" x="406.034815" y="265.038599" style="fill: #8d17c4; stroke: #ffffff"/>
     <use xlink:href="#m7050ecaf6e" x="428.055292" y="266.518861" style="fill: #8d17c4; stroke: #ffffff"/>
     <use xlink:href="#m7050ecaf6e" x="450.075768" y="266.708687" style="fill: #8d17c4; stroke: #ffffff"/>
     <use xlink:href="#m7050ecaf6e" x="472.096244" y="264.682036" style="fill: #8d17c4; stroke: #ffffff"/>
     <use xlink:href="#m7050ecaf6e" x="494.11672" y="263.473493" style="fill: #8d17c4; stroke: #ffffff"/>
     <use xlink:href="#m7050ecaf6e" x="516.137196" y="264.033438" style="fill: #8d17c4; stroke: #ffffff"/>
     <use xlink:href="#m7050ecaf6e" x="535.955625" y="263.830297" style="fill: #8d17c4; stroke: #ffffff"/>
    </g>
   </g>
  </g>
 </g>
 <defs>
  <clipPath id="pc40d13bd86">
   <rect x="73.525625" y="14.373437" width="462.43" height="309.140666"/>
  </clipPath>
 </defs>
</svg>
